<?xml version="1.0" encoding="iso-8859-1"?>
<!-- Generator: Adobe Illustrator 19.0.0, SVG Export Plug-In . SVG Version: 6.00 Build 0)  -->
<svg version="1.1" id="Layer_1" xmlns="http://www.w3.org/2000/svg" xmlns:xlink="http://www.w3.org/1999/xlink" x="0px" y="0px"
	 viewBox="0 0 512 512" style="enable-background:new 0 0 512 512;" xml:space="preserve">
<path style="fill:#FFDA44;" d="M256,0C114.615,0,0,114.615,0,256s114.615,256,256,256s256-114.615,256-256S397.385,0,256,0z
	 M287.575,310.689h-63.15L192.85,256l31.575-54.689h63.15L319.15,256L287.575,310.689z"/>
<g>
	<path style="fill:#00D7DF;" d="M256,40.108C136.957,40.108,40.108,136.957,40.108,256S136.957,471.892,256,471.892
		S471.892,375.043,471.892,256S375.043,40.108,256,40.108z M287.575,310.689h-63.15L192.85,256l31.575-54.689h63.15L319.15,256
		L287.575,310.689z"/>
	<path style="fill:#00D7DF;" d="M311.993,255.996l0.372-0.644l92.565,160.234c42.716-39.89,69.47-96.667,69.47-159.585
		c0-16.667-1.884-32.902-5.438-48.509l-184.969,0.016L311.993,255.996z"/>
</g>
<path style="fill:#00A1A7;" d="M320.471,47.316L228,207.511l55.992-0.005l184.969-0.016
	C451.624,131.34,394.377,70.196,320.471,47.316z"/>
<path style="fill:#003638;" d="M228,207.511l92.47-160.196c-20.386-6.309-42.038-9.714-64.469-9.714
	c-57.26,0-109.434,22.161-148.422,58.343l92.431,160.062L228,207.511z"/>
<path style="fill:#00D7DF;" d="M200.007,256.005L107.578,95.944C64.566,135.857,37.601,192.835,37.601,256
	c0,16.667,1.885,32.902,5.438,48.51l184.968-0.016L200.007,256.005z"/>
<path style="fill:#00A1A7;" d="M228.007,304.494L43.039,304.51c17.338,76.151,74.584,137.294,148.491,160.174l92.471-160.195
	L228.007,304.494z"/>
<path style="fill:#003638;" d="M311.993,255.996l-27.991,48.493l-92.471,160.195c20.386,6.311,42.038,9.715,64.471,9.715
	c57.508,0,109.885-22.354,148.929-58.814l-92.565-160.234L311.993,255.996z"/>
<g>
</g>
<g>
</g>
<g>
</g>
<g>
</g>
<g>
</g>
<g>
</g>
<g>
</g>
<g>
</g>
<g>
</g>
<g>
</g>
<g>
</g>
<g>
</g>
<g>
</g>
<g>
</g>
<g>
</g>
</svg>
